<?xml version="1.0" encoding="UTF-8" standalone="no"?>
<svg
   xmlns:dc="http://purl.org/dc/elements/1.1/"
   xmlns:cc="http://creativecommons.org/ns#"
   xmlns:rdf="http://www.w3.org/1999/02/22-rdf-syntax-ns#"
   xmlns:svg="http://www.w3.org/2000/svg"
   xmlns="http://www.w3.org/2000/svg"
   xmlns:sodipodi="http://sodipodi.sourceforge.net/DTD/sodipodi-0.dtd"
   xmlns:inkscape="http://www.inkscape.org/namespaces/inkscape"
   version="1.0"
   width="966.8512"
   height="393.65424"
   viewBox="0 0 9668.512 3936.5424"
   preserveAspectRatio="xMidYMid meet"
   id="svg3336"
   inkscape:version="0.91 r13725"
   sodipodi:docname="canine-assistants.svg">
  <metadata
     id="metadata3419">
    <rdf:RDF>
      <cc:Work
         rdf:about="">
        <dc:format>image/svg+xml</dc:format>
        <dc:type
           rdf:resource="http://purl.org/dc/dcmitype/StillImage" />
        <dc:title></dc:title>
      </cc:Work>
    </rdf:RDF>
  </metadata>
  <defs
     id="defs3417" />
  <sodipodi:namedview
     pagecolor="#ffffff"
     bordercolor="#666666"
     borderopacity="1"
     objecttolerance="10"
     gridtolerance="10"
     guidetolerance="10"
     inkscape:pageopacity="0"
     inkscape:pageshadow="2"
     inkscape:window-width="1440"
     inkscape:window-height="808"
     id="namedview3415"
     showgrid="false"
     inkscape:zoom="1.01"
     inkscape:cx="484.35117"
     inkscape:cy="282.13753"
     inkscape:window-x="0"
     inkscape:window-y="0"
     inkscape:window-maximized="1"
     inkscape:current-layer="svg3336"
     fit-margin-top="0"
     fit-margin-left="0"
     fit-margin-right="0"
     fit-margin-bottom="0" />
  <g
     id="layer101"
     style="fill:#ac1f64;stroke:none"
     transform="translate(-671.48833,-1092.7539)">
    <path
       d="m 6154,2833 c -9,-20 -21,-64 -27,-97 -14,-81 -14,-532 2,-671 11,-102 14,-112 41,-137 65,-60 135,-20 190,107 18,41 38,75 45,75 7,0 32,-25 55,-56 58,-74 69,-79 131,-59 68,23 83,48 68,111 -27,114 -189,403 -349,623 -116,161 -129,169 -156,104 z"
       id="path3339"
       inkscape:connector-curvature="0" />
  </g>
  <g
     id="layer102"
     style="fill:#006755;stroke:none"
     transform="translate(-671.48833,-1092.7539)">
    <path
       d="m 965,5012 c -114,-43 -197,-118 -253,-231 -33,-67 -37,-84 -40,-165 -4,-106 15,-173 73,-260 49,-74 105,-122 183,-159 60,-28 76,-31 162,-31 103,1 138,11 216,63 l 44,30 0,-40 0,-40 63,3 62,3 0,130 0,130 -69,3 -69,3 -46,-44 c -59,-58 -96,-76 -170,-84 -80,-8 -140,10 -195,58 -64,56 -96,127 -96,208 1,159 112,274 264,273 79,-1 137,-24 199,-81 44,-41 45,-41 121,-41 89,0 94,8 48,81 -43,66 -124,136 -198,171 -87,41 -220,49 -299,20 z"
       id="path3342"
       inkscape:connector-curvature="0" />
    <path
       d="m 1777,5020 c -107,-18 -218,-123 -248,-233 -39,-145 39,-311 177,-382 50,-25 70,-29 134,-29 82,0 101,7 162,62 l 39,36 -3,-40 -3,-39 110,0 110,0 3,63 3,62 -41,0 -40,0 0,179 0,180 38,3 37,3 0,60 0,60 -107,3 -108,3 0,-36 c 0,-41 -8,-44 -40,-10 -42,45 -139,69 -223,55 z m 163,-159 c 19,-10 49,-37 65,-60 25,-36 30,-52 30,-101 0,-49 -5,-65 -30,-101 -42,-60 -84,-82 -157,-82 -49,0 -66,5 -100,29 -48,33 -87,103 -88,153 0,47 35,116 74,145 62,48 134,53 206,17 z"
       id="path3344"
       inkscape:connector-curvature="0" />
    <path
       d="m 4233,5021 c -191,-49 -297,-276 -209,-449 61,-121 152,-183 278,-190 72,-4 83,-2 143,27 110,54 178,161 179,281 l 1,65 -253,3 -252,2 19,38 c 39,77 99,107 208,103 19,-1 49,-14 77,-36 42,-32 52,-35 111,-35 36,0 65,4 65,8 0,5 -14,29 -30,54 -34,51 -82,91 -134,113 -43,18 -160,27 -203,16 z m 257,-383 c 0,-24 -52,-98 -78,-112 -93,-47 -202,-20 -259,64 -41,60 -42,60 157,60 130,0 180,-3 180,-12 z"
       id="path3346"
       inkscape:connector-curvature="0" />
    <path
       d="m 6094,5021 c -18,-4 -46,-18 -63,-30 l -31,-22 0,21 c 0,19 -5,21 -52,18 l -53,-3 0,-85 0,-85 67,-3 67,-3 16,35 c 10,21 30,41 51,51 33,15 37,15 72,-2 83,-41 61,-114 -44,-146 -175,-54 -225,-95 -232,-195 -3,-50 0,-63 27,-104 40,-63 93,-89 177,-90 47,0 73,5 99,21 43,25 45,25 45,6 0,-12 13,-15 55,-15 l 56,0 -3,83 -3,82 -68,3 c -64,3 -68,2 -77,-22 -13,-36 -54,-60 -87,-51 -59,14 -82,67 -46,107 9,10 55,30 102,45 151,45 211,103 211,203 0,68 -30,117 -93,154 -46,27 -141,40 -193,27 z"
       id="path3348"
       inkscape:connector-curvature="0" />
    <path
       d="m 6618,5021 c -15,-5 -44,-19 -63,-31 l -35,-22 0,21 c 0,18 -6,21 -50,21 l -50,0 0,-90 0,-90 64,0 c 62,0 65,1 84,34 29,50 73,70 118,56 38,-13 54,-35 54,-74 0,-38 -29,-61 -111,-86 -147,-44 -198,-85 -214,-173 -14,-73 46,-168 124,-199 47,-18 147,-12 185,11 30,19 35,19 40,6 4,-12 17,-15 53,-13 l 48,3 0,80 0,80 -65,3 c -63,3 -65,2 -78,-27 -18,-42 -60,-56 -105,-38 -62,26 -61,85 1,116 20,10 59,23 86,30 130,32 196,101 196,204 0,100 -79,172 -197,182 -32,2 -70,0 -85,-4 z"
       id="path3350"
       inkscape:connector-curvature="0" />
    <path
       d="m 7464,5021 c -18,-4 -46,-18 -63,-30 l -31,-22 0,21 c 0,19 -5,21 -52,18 l -53,-3 0,-85 0,-85 67,-3 67,-3 16,35 c 10,20 30,41 50,51 30,14 38,14 69,1 34,-14 56,-41 56,-70 0,-34 -45,-66 -120,-87 -150,-42 -201,-89 -208,-187 -3,-50 0,-63 27,-104 40,-63 93,-89 177,-90 47,0 73,5 99,21 43,25 45,25 45,5 0,-12 10,-14 50,-12 28,2 50,6 50,11 0,4 0,41 0,82 l 0,75 -65,0 c -60,0 -66,-2 -75,-24 -13,-36 -54,-60 -87,-51 -59,14 -82,67 -46,107 9,10 59,32 112,48 103,32 154,67 186,130 37,72 -3,183 -83,227 -41,24 -140,36 -188,24 z"
       id="path3352"
       inkscape:connector-curvature="0" />
    <path
       d="m 8349,5019 c -102,-16 -182,-77 -231,-177 -63,-128 -40,-266 64,-371 67,-68 128,-94 218,-95 81,0 117,13 159,58 33,35 41,33 41,-9 l 0,-35 110,0 110,0 0,65 0,65 -40,0 -40,0 2,178 3,177 38,3 37,3 0,65 0,64 -110,0 -110,0 0,-36 0,-35 -32,24 c -72,54 -133,70 -219,56 z m 155,-158 c 16,-9 43,-33 60,-54 28,-35 31,-46 31,-107 0,-76 -12,-100 -78,-154 -33,-26 -45,-30 -100,-30 -71,0 -118,25 -157,81 -24,35 -37,113 -26,157 7,30 59,91 90,108 55,30 127,30 180,-1 z"
       id="path3354"
       inkscape:connector-curvature="0" />
    <path
       d="m 10065,5021 c -35,-9 -75,-32 -75,-43 0,-5 -4,-8 -10,-8 -5,0 -10,9 -10,20 0,17 -7,20 -50,20 l -50,0 0,-90 0,-90 65,0 c 59,0 66,2 74,23 15,39 59,71 96,71 43,0 85,-37 85,-74 0,-40 -36,-66 -130,-95 -112,-35 -157,-65 -182,-122 -39,-88 0,-191 88,-234 60,-29 151,-29 200,0 42,25 44,25 44,5 0,-12 10,-14 53,-12 l 52,3 0,80 0,80 -65,2 c -63,3 -65,2 -85,-29 -11,-18 -32,-37 -46,-42 -34,-12 -81,11 -93,46 -15,42 13,74 82,93 107,30 142,47 187,90 l 45,44 0,73 c 0,62 -4,79 -25,111 -14,20 -43,46 -64,56 -43,22 -141,34 -186,22 z"
       id="path3356"
       inkscape:connector-curvature="0" />
    <path
       d="m 2312,4943 3,-67 30,-1 30,0 3,-177 2,-177 -36,-3 -37,-3 0,-60 0,-60 102,-3 101,-3 0,37 0,37 43,-40 c 49,-46 106,-60 175,-45 61,14 101,48 131,111 24,52 26,67 29,224 l 4,167 34,0 34,0 0,65 0,66 -137,-3 -138,-3 0,-60 0,-60 35,-5 35,-5 3,-128 c 3,-141 -8,-181 -55,-212 -33,-22 -102,-23 -135,-1 -47,31 -58,71 -58,215 l 0,131 35,0 35,0 0,65 0,65 -135,0 -136,0 3,-67 z"
       id="path3358"
       inkscape:connector-curvature="0" />
    <path
       d="m 3010,4946 0,-65 38,-3 37,-3 3,-177 2,-178 -40,0 -40,0 0,-65 0,-66 113,3 112,3 3,243 2,242 35,0 35,0 0,65 0,65 -150,0 -150,0 0,-64 z"
       id="path3360"
       inkscape:connector-curvature="0" />
    <path
       d="m 3362,4943 3,-68 33,3 32,4 0,-181 0,-181 -35,0 -35,0 0,-65 0,-65 100,0 100,0 0,36 0,36 39,-35 c 81,-73 195,-72 273,1 53,49 68,114 68,292 l 0,160 35,0 35,0 0,65 0,65 -133,0 c -74,0 -136,-2 -138,-4 -2,-2 -2,-31 -1,-65 4,-59 4,-60 35,-63 l 32,-3 3,-130 c 2,-82 -2,-140 -9,-157 -30,-72 -135,-95 -190,-42 -41,40 -51,82 -47,214 l 3,115 32,3 c 31,3 31,4 35,63 1,34 1,63 -1,65 -2,2 -65,4 -138,4 l -134,0 3,-67 z"
       id="path3362"
       inkscape:connector-curvature="0" />
    <path
       d="m 4980,4945 0,-65 43,0 c 38,0 45,-4 57,-27 7,-16 57,-131 111,-258 55,-126 104,-238 109,-247 18,-31 11,-38 -35,-38 l -46,0 3,-62 3,-63 131,-3 c 97,-2 134,1 141,10 5,7 72,165 148,351 l 138,337 43,0 44,0 0,65 0,65 -171,-2 -172,-3 0,-60 0,-60 37,-3 c 20,-2 36,-7 36,-12 0,-4 -9,-29 -20,-54 l -19,-46 -141,0 -141,0 -23,53 -24,52 44,3 44,3 0,65 0,64 -170,0 -170,0 0,-65 z m 540,-304 c 0,-20 -88,-256 -95,-254 -5,1 -27,53 -50,115 -24,62 -46,121 -50,131 -7,15 2,17 94,17 56,0 101,-4 101,-9 z"
       id="path3364"
       inkscape:connector-curvature="0" />
    <path
       d="m 6937,5003 c -4,-3 -7,-33 -7,-65 l 0,-58 40,0 40,0 0,-180 0,-180 -40,0 -41,0 3,-62 3,-63 112,-3 113,-3 2,243 3,243 33,3 32,3 0,65 0,64 -143,0 c -79,0 -147,-3 -150,-7 z"
       id="path3366"
       inkscape:connector-curvature="0" />
    <path
       d="m 7858,4768 -3,-243 -45,-3 -45,-3 2,-62 1,-62 44,-5 43,-5 3,-103 3,-103 67,3 67,3 3,103 3,102 44,0 45,0 0,55 c 0,30 0,58 0,63 0,4 -21,9 -47,12 l -48,5 0,175 0,175 53,3 52,3 0,65 0,64 -120,0 -120,0 -2,-242 z"
       id="path3368"
       inkscape:connector-curvature="0" />
    <path
       d="m 8877,5004 c -13,-13 -8,-124 6,-125 6,-1 23,-2 37,-2 l 25,-2 0,-175 0,-175 -37,-3 -38,-3 0,-65 0,-64 100,0 100,0 0,35 c 0,19 2,35 4,35 2,0 20,-16 40,-35 76,-72 204,-69 272,7 53,57 59,83 64,268 l 5,175 35,5 35,5 0,60 0,60 -138,3 -137,3 0,-65 0,-65 33,-3 32,-3 3,-132 c 3,-145 -5,-178 -54,-209 -32,-22 -96,-21 -130,0 -49,33 -65,91 -62,223 l 3,118 35,5 35,5 0,60 0,60 -131,3 c -71,1 -133,-1 -137,-4 z"
       id="path3370"
       inkscape:connector-curvature="0" />
    <path
       d="m 9580,4766 0,-245 -47,-3 c -27,-2 -47,-6 -45,-10 1,-5 2,-33 2,-63 l 0,-55 45,0 45,0 0,-105 0,-105 65,0 64,0 3,103 3,102 48,3 47,3 0,65 0,64 -50,0 -50,0 2,178 3,177 53,3 53,3 -3,62 -3,62 -117,3 -118,3 0,-245 z"
       id="path3372"
       inkscape:connector-curvature="0" />
    <path
       d="m 3093,4304 c -2,-6 -3,-36 -1,-65 l 3,-54 68,-3 68,-3 -3,67 -3,66 -64,2 c -39,0 -65,-3 -68,-10 z"
       id="path3374"
       inkscape:connector-curvature="0" />
    <path
       d="m 7025,4314 c -5,-2 -9,-32 -8,-66 l 1,-63 69,0 68,0 3,63 3,62 -50,0 c -27,0 -55,2 -63,4 -7,3 -17,3 -23,0 z"
       id="path3376"
       inkscape:connector-curvature="0" />
    <path
       d="m 3945,3628 c -11,-6 -23,-16 -27,-22 -17,-25 -7,-89 23,-148 17,-33 43,-110 59,-171 34,-132 53,-157 127,-164 75,-8 79,3 48,129 -40,154 -112,334 -147,363 -32,27 -52,30 -83,13 z"
       id="path3378"
       inkscape:connector-curvature="0" />
    <path
       d="m 6840,3621 c -51,-27 -135,-120 -222,-246 -42,-60 -111,-148 -153,-195 -90,-98 -114,-145 -115,-217 0,-45 4,-54 31,-77 41,-35 96,-35 138,0 17,14 53,62 80,108 51,84 74,112 222,277 100,111 132,162 153,243 17,64 12,84 -26,110 -29,21 -65,19 -108,-3 z"
       id="path3380"
       inkscape:connector-curvature="0" />
    <path
       d="m 6130,3584 c -72,-61 -139,-268 -161,-497 -10,-101 -10,-131 1,-156 15,-37 64,-81 90,-81 37,0 114,203 131,344 6,50 17,135 25,189 17,120 18,199 2,215 -20,20 -54,14 -88,-14 z"
       id="path3382"
       inkscape:connector-curvature="0" />
    <path
       d="m 5228,3533 c -33,-21 -138,-178 -199,-299 -46,-92 -69,-184 -69,-277 0,-50 10,-57 85,-57 77,1 111,37 155,168 16,49 30,96 30,103 0,7 23,59 52,117 59,118 73,193 44,237 -19,30 -58,33 -98,8 z"
       id="path3384"
       inkscape:connector-curvature="0" />
    <path
       d="m 4179,3056 c -111,-39 -171,-152 -113,-210 8,-9 54,-28 102,-42 47,-15 161,-64 254,-110 220,-110 272,-124 469,-131 157,-6 157,-6 172,18 23,35 35,99 25,135 -10,40 -66,90 -115,103 -21,6 -74,14 -118,17 -109,9 -169,32 -285,108 -55,36 -114,73 -131,81 -84,44 -190,56 -260,31 z"
       id="path3386"
       inkscape:connector-curvature="0" />
    <path
       d="m 3841,2850 c -129,-46 -179,-130 -152,-255 l 6,-30 54,72 c 60,82 75,93 150,118 65,21 91,45 91,85 0,29 -1,30 -47,30 -27,-1 -72,-9 -102,-20 z"
       id="path3388"
       inkscape:connector-curvature="0" />
    <path
       d="m 5089,2447 c -79,-42 -139,-148 -125,-221 4,-17 19,-49 35,-71 16,-22 37,-64 47,-93 11,-30 27,-58 37,-64 24,-12 66,2 112,39 19,15 92,57 162,93 104,53 133,73 155,105 40,59 45,105 16,139 -19,22 -38,29 -103,40 -44,7 -104,23 -133,35 -71,28 -146,28 -203,-2 z"
       id="path3390"
       inkscape:connector-curvature="0" />
    <path
       d="m 4742,2210 c -58,-12 -118,-47 -131,-77 -37,-81 139,-151 234,-93 46,28 77,120 52,154 -15,20 -95,28 -155,16 z"
       id="path3392"
       inkscape:connector-curvature="0" />
    <path
       d="m 6882,2190 c -69,-16 -120,-95 -109,-166 16,-97 93,-147 288,-189 63,-13 130,-29 149,-35 47,-14 103,-13 118,2 7,7 12,28 12,47 0,78 -76,173 -182,227 -29,15 -82,46 -117,70 -35,24 -68,44 -75,44 -6,0 -20,2 -31,4 -11,3 -35,1 -53,-4 z"
       id="path3394"
       inkscape:connector-curvature="0" />
    <path
       d="m 5841,1974 c -169,-45 -261,-139 -264,-270 -1,-50 2,-59 26,-80 54,-46 107,-31 204,57 40,37 94,74 133,92 36,16 73,36 83,45 22,19 23,101 2,142 -15,28 -19,30 -73,29 -31,0 -81,-7 -111,-15 z"
       id="path3396"
       inkscape:connector-curvature="0" />
    <path
       d="m 5075,1916 c -41,-18 -54,-36 -71,-98 -26,-100 -13,-167 40,-202 14,-9 27,-16 30,-16 13,0 100,115 111,147 11,31 10,46 -5,101 -23,84 -42,96 -105,68 z"
       id="path3398"
       inkscape:connector-curvature="0" />
    <path
       d="m 6452,1740 c -127,-60 -212,-183 -220,-321 -5,-92 14,-143 79,-214 98,-107 270,-143 396,-84 54,26 118,97 151,167 23,48 27,71 27,147 0,80 -4,97 -31,156 -58,123 -141,179 -265,179 -61,0 -85,-5 -137,-30 z m 143,-284 c 39,-17 55,-42 55,-87 0,-39 -36,-99 -58,-99 -30,1 -116,54 -131,81 -20,36 1,86 43,105 40,17 49,17 91,0 z"
       id="path3400"
       inkscape:connector-curvature="0" />
  </g>
</svg>
